<svg id="lock-padlock-symbol-for-security-interface" xmlns="http://www.w3.org/2000/svg" width="10.243" height="14.162" viewBox="0 0 10.243 14.162">
  <g id="Groupe_1576" data-name="Groupe 1576">
    <path id="Tracé_31" data-name="Tracé 31" d="M86.116,0a4.146,4.146,0,0,0-4.142,4.142V6.507a.111.111,0,0,1-.059.081c-.224.075-.406.139-.572.2a.573.573,0,0,0-.348.512v5.435a.577.577,0,0,0,.346.512,12.964,12.964,0,0,0,9.551,0,.577.577,0,0,0,.346-.512V7.3a.573.573,0,0,0-.348-.512c-.167-.064-.348-.129-.572-.2a.111.111,0,0,1-.059-.081V4.142A4.146,4.146,0,0,0,86.116,0ZM84.987,8.959a1.128,1.128,0,0,1,2.256,0,1.111,1.111,0,0,1-.564.955v1.865a.564.564,0,1,1-1.128,0V9.914A1.111,1.111,0,0,1,84.987,8.959Zm3.846-4.817V6.182a12.928,12.928,0,0,0-5.435,0V4.142a2.718,2.718,0,0,1,5.435,0Z" transform="translate(-80.994)" fill="#262626"/>
  </g>
</svg>
