<svg id="logo-grouplive-agence-web-site-internet-application-bretagne" xmlns="http://www.w3.org/2000/svg" xmlns:xlink="http://www.w3.org/1999/xlink" width="162.727" height="37.14" viewBox="0 0 162.727 37.14">
  <defs>
    <linearGradient id="linear-gradient" x1="0.5" y1="1" x2="0.5" gradientUnits="objectBoundingBox">
      <stop offset="0" stop-color="#f08518"/>
      <stop offset="1" stop-color="#f39419"/>
    </linearGradient>
  </defs>
  <g id="Groupe_1435" data-name="Groupe 1435">
    <path id="Tracé_145" data-name="Tracé 145" d="M21.855,11.235c.031.892.062,1.57.062,2.062,0,6.249-3.756,9.789-10.158,9.789a11.35,11.35,0,0,1-8.527-3.2A11.723,11.723,0,0,1,0,11.543,11.2,11.2,0,0,1,3.355,3.232,11.873,11.873,0,0,1,11.759,0,10.137,10.137,0,0,1,20.07,3.848l-2.616,1.97A7.024,7.024,0,0,0,11.82,3.263c-4.709,0-8.1,3.294-8.1,8.25,0,5.017,3.355,8.373,8.127,8.373,4.125,0,6.587-2.062,6.587-5.325v-.308H13.144V11.235Z" fill="url(#linear-gradient)"/>
    <path id="Tracé_146" data-name="Tracé 146" d="M92.658,23.722H89.3V1.713H94.29c2.37,0,4.125.185,5.479,1.231a6.019,6.019,0,0,1,2.124,4.833c0,3.54-1.724,5.541-5.048,5.941l7.572,10h-4.032l-7.326-9.85h-.4v9.85ZM93.52,11.1c3.14,0,4.71-.369,4.71-3.017,0-2.709-1.508-3.294-4.71-3.294h-.647V11.1h.647Z" transform="translate(-63.629 -1.221)" fill="url(#linear-gradient)"/>
    <path id="Tracé_147" data-name="Tracé 147" d="M166.016,19.7a11.931,11.931,0,0,1-16.653,0,11.137,11.137,0,0,1-3.417-8.157,11.256,11.256,0,0,1,3.417-8.188,12.01,12.01,0,0,1,16.653,0,11.336,11.336,0,0,1,3.448,8.188A11.165,11.165,0,0,1,166.016,19.7ZM163.369,5.695a7.8,7.8,0,0,0-5.664-2.4,7.919,7.919,0,0,0-5.695,2.4,8.236,8.236,0,0,0-2.34,5.849,8.165,8.165,0,0,0,2.34,5.818,7.917,7.917,0,0,0,11.358,0,8.363,8.363,0,0,0,0-11.666Z" transform="translate(-103.988 0)" fill="url(#linear-gradient)"/>
    <path id="Tracé_148" data-name="Tracé 148" d="M245.215,1.713V15.072c0,3.971,1.847,5.971,5.479,5.971s5.479-2,5.479-5.971V1.713h3.571v13.7c0,5.941-2.986,8.9-9.05,8.9s-9.019-2.955-9.019-8.9V1.713Z" transform="translate(-172.196 -1.221)" fill="url(#linear-gradient)"/>
    <path id="Tracé_149" data-name="Tracé 149" d="M325.016,23.722h-3.355V1.713h5.418c2.247,0,4.032.062,5.51,1.139A6.007,6.007,0,0,1,334.8,7.777a6.07,6.07,0,0,1-2.216,4.956c-1.477,1.047-3.263,1.108-5.51,1.108h-2.063Zm1.139-12.805c3.294,0,4.956-.369,4.956-2.924,0-2.647-1.632-3.2-4.956-3.2h-.924v6.126Z" transform="translate(-229.186 -1.221)" fill="url(#linear-gradient)"/>
  </g>
  <g id="Groupe_1436" data-name="Groupe 1436" transform="translate(108.851 0.492)">
    <path id="Tracé_150" data-name="Tracé 150" d="M378.625,1.713H382.2V20.52h8v3.2H378.625Z" transform="translate(-378.625 -1.713)" fill="#2b2b33"/>
    <path id="Tracé_151" data-name="Tracé 151" d="M428.523,20.687h3.263V37.241h-3.263Z" transform="translate(-414.178 -15.232)" fill="#2b2b33"/>
    <path id="Tracé_152" data-name="Tracé 152" d="M447.155,1.713h3.725L455.8,13.441a19.025,19.025,0,0,1,1.17,3.54,22.883,22.883,0,0,1,1.2-3.54L463.1,1.713h3.694l-9.82,22.871Z" transform="translate(-427.453 -1.713)" fill="#2b2b33"/>
    <path id="Tracé_153" data-name="Tracé 153" d="M523.178,1.713H535.46V4.76h-8.712v5.51h8.712v3.14h-8.712v7.111h8.712v3.2H523.178V1.713Z" transform="translate(-481.62 -1.713)" fill="#2b2b33"/>
  </g>
  <g id="Groupe_1438" data-name="Groupe 1438" transform="translate(49.341 28.219)">
    <g id="Groupe_1437" data-name="Groupe 1437">
      <path id="Tracé_154" data-name="Tracé 154" d="M174.978,110a2.564,2.564,0,0,1-.1-.685,1.893,1.893,0,0,1-.728.574,2.23,2.23,0,0,1-.936.2,1.643,1.643,0,0,1-1.145-.395,1.284,1.284,0,0,1-.438-1,1.313,1.313,0,0,1,.6-1.134,2.867,2.867,0,0,1,1.662-.417h.984v-.557a1.074,1.074,0,0,0-.324-.828,1.34,1.34,0,0,0-.946-.3,1.479,1.479,0,0,0-.939.29.862.862,0,0,0-.372.7l-.544,0a1.262,1.262,0,0,1,.544-1.013,2.1,2.1,0,0,1,1.338-.429,1.912,1.912,0,0,1,1.295.411,1.472,1.472,0,0,1,.488,1.145v2.322a2.873,2.873,0,0,0,.15,1.066V110Zm-1.705-.39a1.818,1.818,0,0,0,.973-.263,1.546,1.546,0,0,0,.624-.7v-1.08h-.97a2.434,2.434,0,0,0-1.27.3.892.892,0,0,0-.458.792.876.876,0,0,0,.306.685A1.152,1.152,0,0,0,173.273,109.611Z" transform="translate(-171.627 -103.036)" fill="#5a5b5f"/>
      <path id="Tracé_155" data-name="Tracé 155" d="M195.518,107.5a2.955,2.955,0,0,1,.51-1.825,1.646,1.646,0,0,1,1.385-.674,1.707,1.707,0,0,1,1.524.8l.027-.708h.508V109.9a2.078,2.078,0,0,1-.531,1.5,1.9,1.9,0,0,1-1.437.553,2.184,2.184,0,0,1-.977-.229,1.9,1.9,0,0,1-.732-.61l.3-.326a1.719,1.719,0,0,0,1.369.708,1.394,1.394,0,0,0,1.061-.4,1.6,1.6,0,0,0,.394-1.113v-.617a1.754,1.754,0,0,1-1.519.725,1.636,1.636,0,0,1-1.37-.68,2.963,2.963,0,0,1-.517-1.837V107.5Zm.549.1a2.558,2.558,0,0,0,.377,1.481,1.218,1.218,0,0,0,1.061.542,1.451,1.451,0,0,0,1.42-.9V106.44a1.55,1.55,0,0,0-.549-.719,1.483,1.483,0,0,0-.862-.247,1.233,1.233,0,0,0-1.066.537A2.734,2.734,0,0,0,196.067,107.6Z" transform="translate(-188.65 -103.034)" fill="#5a5b5f"/>
      <path id="Tracé_156" data-name="Tracé 156" d="M221.815,110.091a2.131,2.131,0,0,1-1.132-.308,2.1,2.1,0,0,1-.787-.86,2.678,2.678,0,0,1-.281-1.236v-.2a2.888,2.888,0,0,1,.274-1.274,2.183,2.183,0,0,1,.764-.892,1.886,1.886,0,0,1,1.061-.324,1.773,1.773,0,0,1,1.417.61,2.477,2.477,0,0,1,.524,1.667v.3h-3.5v.1a2.054,2.054,0,0,0,.478,1.39,1.522,1.522,0,0,0,1.2.555,1.769,1.769,0,0,0,.769-.159,1.7,1.7,0,0,0,.605-.508l.34.258A1.98,1.98,0,0,1,221.815,110.091Zm-.1-4.626a1.356,1.356,0,0,0-1.032.449,2.072,2.072,0,0,0-.51,1.206h2.943v-.059a1.8,1.8,0,0,0-.4-1.152A1.253,1.253,0,0,0,221.715,105.465Z" transform="translate(-205.819 -103.034)" fill="#5a5b5f"/>
      <path id="Tracé_157" data-name="Tracé 157" d="M244.323,105.094l.018.839a1.946,1.946,0,0,1,.689-.692,1.792,1.792,0,0,1,.912-.238,1.472,1.472,0,0,1,1.174.444,2,2,0,0,1,.39,1.333V110h-.54v-3.225a1.5,1.5,0,0,0-.279-.979,1.093,1.093,0,0,0-.877-.322,1.372,1.372,0,0,0-.891.315,1.846,1.846,0,0,0-.574.85V110h-.54v-4.907h.517Z" transform="translate(-223.055 -103.035)" fill="#5a5b5f"/>
      <path id="Tracé_158" data-name="Tracé 158" d="M269.131,109.634a1.433,1.433,0,0,0,.95-.319,1.126,1.126,0,0,0,.415-.828h.521a1.534,1.534,0,0,1-.281.818,1.762,1.762,0,0,1-.687.578,2.074,2.074,0,0,1-.918.209,1.9,1.9,0,0,1-1.531-.671,2.713,2.713,0,0,1-.565-1.8v-.163a3.066,3.066,0,0,1,.254-1.283,1.958,1.958,0,0,1,.728-.862,2.009,2.009,0,0,1,1.109-.3,1.9,1.9,0,0,1,1.331.481,1.754,1.754,0,0,1,.56,1.265H270.5a1.313,1.313,0,0,0-1.37-1.283,1.352,1.352,0,0,0-1.14.531,2.4,2.4,0,0,0-.406,1.487v.159a2.346,2.346,0,0,0,.406,1.465A1.365,1.365,0,0,0,269.131,109.634Z" transform="translate(-239.606 -103.036)" fill="#5a5b5f"/>
      <path id="Tracé_159" data-name="Tracé 159" d="M292.275,110.091a2.129,2.129,0,0,1-1.131-.308,2.1,2.1,0,0,1-.787-.86,2.678,2.678,0,0,1-.281-1.236v-.2a2.883,2.883,0,0,1,.274-1.274,2.184,2.184,0,0,1,.764-.892,1.887,1.887,0,0,1,1.061-.324,1.774,1.774,0,0,1,1.417.61,2.475,2.475,0,0,1,.523,1.667v.3h-3.5v.1a2.056,2.056,0,0,0,.479,1.39,1.521,1.521,0,0,0,1.2.555,1.771,1.771,0,0,0,.769-.159,1.7,1.7,0,0,0,.605-.508l.34.258A1.978,1.978,0,0,1,292.275,110.091Zm-.1-4.626a1.355,1.355,0,0,0-1.031.449,2.072,2.072,0,0,0-.51,1.206h2.943v-.059a1.8,1.8,0,0,0-.4-1.152A1.253,1.253,0,0,0,292.175,105.465Z" transform="translate(-256.022 -103.034)" fill="#5a5b5f"/>
      <path id="Tracé_160" data-name="Tracé 160" d="M328.711,109.1l.082.422.109-.444,1.179-3.755h.462l1.166,3.723.127.517.1-.476,1.007-3.764h.562l-1.429,4.907h-.463l-1.261-3.891-.059-.268-.059.272L329,110.226h-.463l-1.424-4.907h.558Z" transform="translate(-282.414 -103.26)" fill="#5a5b5f"/>
      <path id="Tracé_161" data-name="Tracé 161" d="M360.559,110.091a2.129,2.129,0,0,1-1.131-.308,2.1,2.1,0,0,1-.787-.86,2.678,2.678,0,0,1-.281-1.236v-.2a2.884,2.884,0,0,1,.274-1.274,2.184,2.184,0,0,1,.764-.892,1.887,1.887,0,0,1,1.061-.324,1.774,1.774,0,0,1,1.417.61,2.475,2.475,0,0,1,.524,1.667v.3h-3.5v.1a2.057,2.057,0,0,0,.478,1.39,1.522,1.522,0,0,0,1.2.555,1.769,1.769,0,0,0,.769-.159,1.7,1.7,0,0,0,.605-.508l.34.258A1.977,1.977,0,0,1,360.559,110.091Zm-.1-4.626a1.355,1.355,0,0,0-1.031.449,2.071,2.071,0,0,0-.51,1.206h2.943v-.059a1.8,1.8,0,0,0-.4-1.152A1.254,1.254,0,0,0,360.459,105.465Z" transform="translate(-304.675 -103.034)" fill="#5a5b5f"/>
      <path id="Tracé_162" data-name="Tracé 162" d="M386.49,102.719a2.957,2.957,0,0,1-.508,1.821,1.622,1.622,0,0,1-1.365.674,1.763,1.763,0,0,1-1.551-.762l-.023.671h-.508V98.157h.54v2.771a1.7,1.7,0,0,1,1.533-.8,1.637,1.637,0,0,1,1.376.665,2.991,2.991,0,0,1,.506,1.848v.081Zm-.544-.1a2.558,2.558,0,0,0-.376-1.5,1.228,1.228,0,0,0-1.061-.528,1.494,1.494,0,0,0-.885.256,1.557,1.557,0,0,0-.548.75v2.213a1.453,1.453,0,0,0,1.442.925,1.218,1.218,0,0,0,1.05-.531A2.736,2.736,0,0,0,385.946,102.624Z" transform="translate(-321.901 -98.157)" fill="#5a5b5f"/>
    </g>
  </g>
  <rect id="Rectangle_53" data-name="Rectangle 53" width="44.259" height="0.575" transform="translate(0.031 32.54)" fill="#5a5b5f"/>
  <rect id="Rectangle_54" data-name="Rectangle 54" width="44.259" height="0.575" transform="translate(118.468 32.54)" fill="#5a5b5f"/>
  <circle id="Ellipse_1" data-name="Ellipse 1" cx="2.047" cy="2.047" r="2.047" transform="translate(122.765 0.062)" fill="#f39419"/>
</svg>
