<svg id="file_1_" data-name="file (1)" xmlns="http://www.w3.org/2000/svg" width="18.698" height="27.113" viewBox="0 0 18.698 27.113">
  <path id="Tracé_111" data-name="Tracé 111" d="M18.7,25.71H0V0H14.491L18.7,4.207Zm0,0" fill="#e3e4d8"/>
  <path id="Tracé_112" data-name="Tracé 112" d="M273.656,0V4.207h4.207Zm0,0" transform="translate(-259.165)" fill="#d0cebd"/>
  <path id="Tracé_113" data-name="Tracé 113" d="M0,353.1H18.7v8.414H0Zm0,0" transform="translate(0 -334.404)" fill="#82c288"/>
  <path id="Tracé_114" data-name="Tracé 114" d="M144.514,468.8h-2.8a.467.467,0,1,1,0-.935h2.8a.467.467,0,1,1,0,.935Zm0,0" transform="translate(-133.763 -443.088)" fill="#fff"/>
  <path id="Tracé_115" data-name="Tracé 115" d="M141.709,385.2a.467.467,0,0,1-.467-.467v-4.675a.467.467,0,1,1,.935,0v4.675A.468.468,0,0,1,141.709,385.2Zm0,0" transform="translate(-133.762 -359.486)" fill="#fff"/>
  <g id="Groupe_921" data-name="Groupe 921" transform="translate(2.337 6.077)">
    <path id="Tracé_116" data-name="Tracé 116" d="M48.344,117.563H44.6a.468.468,0,0,1-.467-.467v-1.87a.468.468,0,0,1,.467-.467h3.74a.468.468,0,0,1,.467.467v1.87A.467.467,0,0,1,48.344,117.563Zm-3.272-.935h2.8v-.935h-2.8Zm0,0" transform="translate(-44.137 -114.758)" fill="#a09893"/>
    <path id="Tracé_117" data-name="Tracé 117" d="M48.344,152.875H44.6a.468.468,0,0,1-.467-.467v-1.87a.468.468,0,0,1,.467-.467h3.74a.468.468,0,0,1,.467.467v1.87A.468.468,0,0,1,48.344,152.875Zm-3.272-.935h2.8V151h-2.8Zm0,0" transform="translate(-44.137 -148.2)" fill="#a09893"/>
    <path id="Tracé_118" data-name="Tracé 118" d="M124.575,152.875h-9.349a.468.468,0,0,1-.467-.467v-1.87a.468.468,0,0,1,.467-.467h9.349a.468.468,0,0,1,.467.467v1.87A.468.468,0,0,1,124.575,152.875Zm-8.882-.935h8.414V151h-8.414Zm0,0" transform="translate(-111.018 -148.2)" fill="#a09893"/>
    <path id="Tracé_119" data-name="Tracé 119" d="M48.344,188.184H44.6a.468.468,0,0,1-.467-.467v-1.87a.468.468,0,0,1,.467-.467h3.74a.468.468,0,0,1,.467.467v1.87A.468.468,0,0,1,48.344,188.184Zm-3.272-.935h2.8v-.935h-2.8Zm0,0" transform="translate(-44.137 -181.639)" fill="#a09893"/>
    <path id="Tracé_120" data-name="Tracé 120" d="M124.575,188.184h-9.349a.468.468,0,0,1-.467-.467v-1.87a.468.468,0,0,1,.467-.467h9.349a.468.468,0,0,1,.467.467v1.87A.468.468,0,0,1,124.575,188.184Zm-8.882-.935h8.414v-.935h-8.414Zm0,0" transform="translate(-111.018 -181.639)" fill="#a09893"/>
    <path id="Tracé_121" data-name="Tracé 121" d="M48.344,223.5H44.6a.468.468,0,0,1-.467-.467v-1.87a.468.468,0,0,1,.467-.467h3.74a.467.467,0,0,1,.467.467v1.87A.468.468,0,0,1,48.344,223.5Zm-3.272-.935h2.8v-.935h-2.8Zm0,0" transform="translate(-44.137 -215.082)" fill="#a09893"/>
    <path id="Tracé_122" data-name="Tracé 122" d="M124.575,223.5h-9.349a.468.468,0,0,1-.467-.467v-1.87a.468.468,0,0,1,.467-.467h9.349a.467.467,0,0,1,.467.467v1.87A.468.468,0,0,1,124.575,223.5Zm-8.882-.935h8.414v-.935h-8.414Zm0,0" transform="translate(-111.018 -215.082)" fill="#a09893"/>
    <path id="Tracé_123" data-name="Tracé 123" d="M48.344,258.8H44.6a.468.468,0,0,1-.467-.467v-1.87A.468.468,0,0,1,44.6,256h3.74a.468.468,0,0,1,.467.467v1.87A.468.468,0,0,1,48.344,258.8Zm-3.272-.935h2.8v-.935h-2.8Zm0,0" transform="translate(-44.137 -248.521)" fill="#a09893"/>
    <path id="Tracé_124" data-name="Tracé 124" d="M124.575,258.8h-9.349a.468.468,0,0,1-.467-.467v-1.87a.468.468,0,0,1,.467-.467h9.349a.468.468,0,0,1,.467.467v1.87A.468.468,0,0,1,124.575,258.8Zm-8.882-.935h8.414v-.935h-8.414Zm0,0" transform="translate(-111.018 -248.521)" fill="#a09893"/>
  </g>
  <path id="Tracé_125" data-name="Tracé 125" d="M44.607,385.19a.461.461,0,0,1-.24-.067.467.467,0,0,1-.161-.641l2.8-4.675a.467.467,0,1,1,.8.481l-2.8,4.674a.468.468,0,0,1-.4.227Zm0,0" transform="translate(-41.803 -359.48)" fill="#fff"/>
  <path id="Tracé_126" data-name="Tracé 126" d="M47.413,385.194a.466.466,0,0,1-.4-.227l-2.8-4.674a.468.468,0,0,1,.8-.481l2.8,4.675a.467.467,0,0,1-.4.708Zm0,0" transform="translate(-41.803 -359.484)" fill="#fff"/>
  <path id="Tracé_127" data-name="Tracé 127" d="M240.447,385.2h-1.636a.467.467,0,1,1,0-.935h1.636a.7.7,0,0,0,0-1.4h-.467a1.636,1.636,0,1,1,0-3.272h1.636a.467.467,0,0,1,0,.935H239.98a.7.7,0,1,0,0,1.4h.467a1.636,1.636,0,0,1,0,3.272Zm0,0" transform="translate(-225.722 -359.486)" fill="#fff"/>
</svg>
