<svg id="file" xmlns="http://www.w3.org/2000/svg" width="18.698" height="27.113" viewBox="0 0 18.698 27.113">
  <path id="Tracé_153" data-name="Tracé 153" d="M18.7,25.71H0V0H14.491L18.7,4.207Zm0,0" fill="#e3e4d8"/>
  <path id="Tracé_154" data-name="Tracé 154" d="M273.656,0V4.207h4.207Zm0,0" transform="translate(-259.165)" fill="#d0cebd"/>
  <path id="Tracé_155" data-name="Tracé 155" d="M0,353.1H18.7v8.414H0Zm0,0" transform="translate(0 -334.404)" fill="#b53438"/>
  <g id="Groupe_924" data-name="Groupe 924" transform="translate(2.337 20.101)">
    <path id="Tracé_156" data-name="Tracé 156" d="M44.6,385.2a.468.468,0,0,1-.467-.467v-4.675a.467.467,0,1,1,.935,0v4.675A.467.467,0,0,1,44.6,385.2Zm0,0" transform="translate(-44.137 -379.586)" fill="#fff"/>
    <path id="Tracé_157" data-name="Tracé 157" d="M241.616,380.521h-2.8a.467.467,0,0,1,0-.935h2.8a.467.467,0,0,1,0,.935Zm0,0" transform="translate(-228.06 -379.586)" fill="#fff"/>
    <path id="Tracé_158" data-name="Tracé 158" d="M241.616,424.658h-2.8a.467.467,0,1,1,0-.935h2.8a.467.467,0,1,1,0,.935Zm0,0" transform="translate(-228.06 -421.385)" fill="#fff"/>
    <path id="Tracé_159" data-name="Tracé 159" d="M238.811,385.2a.468.468,0,0,1-.467-.467v-4.675a.467.467,0,1,1,.935,0v4.675A.467.467,0,0,1,238.811,385.2Zm0,0" transform="translate(-228.06 -379.586)" fill="#fff"/>
  </g>
  <path id="Tracé_160" data-name="Tracé 160" d="M84.247,80.28a1.093,1.093,0,0,0,.045,1.479c.442-.973-.025-1.486-.045-1.479m.283,3.893a32.6,32.6,0,0,1-1.246,3.48,23.5,23.5,0,0,1,3.026-.929,15.742,15.742,0,0,1-1.78-2.551M88.01,87.2c.38.288.472.434.721.434a.594.594,0,0,0,.67-.393c-.057-.03-.133-.091-.547-.091a6.831,6.831,0,0,0-.844.049m-6.352,2.044c-1,.552-1.4,1.006-1.43,1.262,0,.043-.017.154.2.318.07-.022.475-.2,1.23-1.581M80.417,91.6a.754.754,0,0,1-.451-.15,1.1,1.1,0,0,1-.519-1.032c.085-.748,1.022-1.533,2.788-2.332A30.637,30.637,0,0,0,84,83.143c-.465-1-.917-2.3-.588-3.056a.89.89,0,0,1,.528-.56,2.346,2.346,0,0,1,.473-.078c.244,0,.479.292.592.481a1.894,1.894,0,0,1,.178,1.158,10.265,10.265,0,0,1-.173,1.144c-.055.278-.117.554-.184.829a14.683,14.683,0,0,0,2.37,3.478,9.193,9.193,0,0,1,1.565-.164c.729,0,1.171.168,1.351.513a.921.921,0,0,1-.182.994,1.241,1.241,0,0,1-1.034.548,3.109,3.109,0,0,1-1.962-1.051,22.546,22.546,0,0,0-4.112,1.3,13.016,13.016,0,0,1-1.11,1.956c-.476.662-.888.97-1.3.97" transform="translate(-75.234 -75.242)" fill="#b53438"/>
  <path id="Tracé_161" data-name="Tracé 161" d="M46.007,383.326H44.6a.468.468,0,0,1-.467-.467v-2.8a.468.468,0,0,1,.467-.467h1.4a1.87,1.87,0,0,1,0,3.74Zm-.935-.935h.935a.935.935,0,0,0,0-1.87h-.935Zm0,0" transform="translate(-41.799 -359.485)" fill="#fff"/>
  <path id="Tracé_162" data-name="Tracé 162" d="M142.177,385.2h-.467a.467.467,0,0,1-.467-.467v-4.675a.468.468,0,0,1,.467-.467h.467a2.8,2.8,0,1,1,0,5.609Zm0-.935h0Zm0-3.74v3.74a1.87,1.87,0,0,0,0-3.74Zm0,0" transform="translate(-133.762 -359.486)" fill="#fff"/>
</svg>
