<svg id="file_3_" data-name="file (3)" xmlns="http://www.w3.org/2000/svg" width="18.698" height="27.113" viewBox="0 0 18.698 27.113">
  <path id="Tracé_136" data-name="Tracé 136" d="M18.7,25.71H0V0H14.491L18.7,4.207Zm0,0" fill="#e3e4d8"/>
  <path id="Tracé_137" data-name="Tracé 137" d="M115.228,259.27a.463.463,0,0,1-.24-.067.468.468,0,0,1-.16-.641l1.4-2.337a.467.467,0,0,1,.8.481l-1.4,2.337A.468.468,0,0,1,115.228,259.27Zm0,0" transform="translate(-108.684 -242.441)" fill="#a09893"/>
  <path id="Tracé_138" data-name="Tracé 138" d="M196.079,259.274a.466.466,0,0,1-.4-.227l-1.4-2.337a.468.468,0,1,1,.8-.481l1.4,2.337a.467.467,0,0,1-.4.708Zm0,0" transform="translate(-183.924 -242.445)" fill="#a09893"/>
  <path id="Tracé_139" data-name="Tracé 139" d="M143.108,90.611a.466.466,0,0,1-.33-.137l-1.4-1.4a.467.467,0,1,1,.661-.661l1.4,1.4a.467.467,0,0,1-.331.8Zm0,0" transform="translate(-133.759 -83.599)" fill="#a09893"/>
  <path id="Tracé_140" data-name="Tracé 140" d="M168.19,90.611a.467.467,0,0,1-.33-.8l1.4-1.4a.467.467,0,0,1,.661.661l-1.4,1.4A.467.467,0,0,1,168.19,90.611Zm0,0" transform="translate(-158.841 -83.599)" fill="#a09893"/>
  <path id="Tracé_141" data-name="Tracé 141" d="M273.656,0V4.207h4.207Zm0,0" transform="translate(-259.165)" fill="#d0cebd"/>
  <path id="Tracé_142" data-name="Tracé 142" d="M0,353.1H18.7v8.414H0Zm0,0" transform="translate(0 -334.404)" fill="#d36a0a"/>
  <g id="Groupe_923" data-name="Groupe 923" transform="translate(2.337 20.101)">
    <path id="Tracé_143" data-name="Tracé 143" d="M44.6,385.2a.468.468,0,0,1-.467-.467v-4.675a.467.467,0,1,1,.935,0v4.675A.467.467,0,0,1,44.6,385.2Zm0,0" transform="translate(-44.137 -379.586)" fill="#fff"/>
    <path id="Tracé_144" data-name="Tracé 144" d="M46.007,383.326H44.6a.468.468,0,0,1-.467-.467v-2.8a.468.468,0,0,1,.467-.467h1.4a1.87,1.87,0,0,1,0,3.74Zm-.935-.935h.935a.935.935,0,0,0,0-1.87h-.935Zm0,0" transform="translate(-44.137 -379.586)" fill="#fff"/>
    <path id="Tracé_145" data-name="Tracé 145" d="M141.709,385.2a.467.467,0,0,1-.467-.467v-4.675a.467.467,0,1,1,.935,0v4.675A.468.468,0,0,1,141.709,385.2Zm0,0" transform="translate(-136.1 -379.586)" fill="#fff"/>
    <path id="Tracé_146" data-name="Tracé 146" d="M143.112,383.326h-1.4a.468.468,0,0,1-.467-.467v-2.8a.468.468,0,0,1,.467-.467h1.4a1.87,1.87,0,1,1,0,3.74Zm-.935-.935h.935a.935.935,0,1,0,0-1.87h-.935Zm0,0" transform="translate(-136.1 -379.586)" fill="#fff"/>
    <path id="Tracé_147" data-name="Tracé 147" d="M241.616,380.521h-2.8a.467.467,0,0,1,0-.935h2.8a.467.467,0,0,1,0,.935Zm0,0" transform="translate(-228.06 -379.586)" fill="#fff"/>
    <path id="Tracé_148" data-name="Tracé 148" d="M265.3,385.2a.467.467,0,0,1-.467-.467v-4.675a.467.467,0,1,1,.935,0v4.675A.468.468,0,0,1,265.3,385.2Zm0,0" transform="translate(-253.141 -379.586)" fill="#fff"/>
  </g>
  <path id="Tracé_149" data-name="Tracé 149" d="M61.793,123.586H73.947v7.479H61.793Zm0,0" transform="translate(-58.521 -117.042)" fill="#c8c1bd"/>
  <path id="Tracé_150" data-name="Tracé 150" d="M92.485,151.005h-3.74a.467.467,0,0,1,0-.935h3.74a.467.467,0,1,1,0,.935Zm0,0" transform="translate(-83.603 -142.124)" fill="#a09893"/>
  <path id="Tracé_151" data-name="Tracé 151" d="M180.758,221.626h-3.74a.467.467,0,1,1,0-.935h3.74a.467.467,0,1,1,0,.935Zm0,0" transform="translate(-167.202 -209.005)" fill="#a09893"/>
  <path id="Tracé_152" data-name="Tracé 152" d="M136.621,186.314h-3.74a.467.467,0,0,1,0-.935h3.74a.467.467,0,1,1,0,.935Zm0,0" transform="translate(-125.402 -175.562)" fill="#a09893"/>
</svg>
