<svg id="file_2_" data-name="file (2)" xmlns="http://www.w3.org/2000/svg" width="18.698" height="27.113" viewBox="0 0 18.698 27.113">
  <path id="Tracé_128" data-name="Tracé 128" d="M18.7,25.71H0V0H14.491L18.7,4.207Zm0,0" fill="#e3e4d8"/>
  <path id="Tracé_129" data-name="Tracé 129" d="M273.656,0V4.207h4.207Zm0,0" transform="translate(-259.165)" fill="#d0cebd"/>
  <path id="Tracé_130" data-name="Tracé 130" d="M0,353.1H18.7v8.414H0Zm0,0" transform="translate(0 -334.404)" fill="#2c81e4"/>
  <path id="Tracé_131" data-name="Tracé 131" d="M241.616,385.2h-1.866a1.408,1.408,0,0,1-1.407-1.407v-2.8a1.408,1.408,0,0,1,1.407-1.407h1.866a.467.467,0,0,1,0,.935h-1.866a.472.472,0,0,0-.472.472v2.8a.472.472,0,0,0,.472.472h1.866a.467.467,0,1,1,0,.935Zm0,0" transform="translate(-225.723 -359.485)" fill="#fff"/>
  <path id="Tracé_132" data-name="Tracé 132" d="M79.449,132.414H89.733V141.3H79.449Zm0,0" transform="translate(-75.242 -125.402)" fill="#2c81e4"/>
  <g id="Groupe_922" data-name="Groupe 922" transform="translate(2.337 8.881)">
    <path id="Tracé_133" data-name="Tracé 133" d="M119.427,172.86a.468.468,0,0,1-.444-.32l-.959-2.877-.959,2.877a.468.468,0,0,1-.887,0l-1.4-4.207a.468.468,0,0,1,.887-.3l.959,2.877.959-2.877a.468.468,0,0,1,.887,0l.959,2.877.959-2.877a.468.468,0,0,1,.887.3l-1.4,4.207A.468.468,0,0,1,119.427,172.86Zm0,0" transform="translate(-111.012 -167.718)" fill="#fff"/>
    <path id="Tracé_134" data-name="Tracé 134" d="M45.072,385.2H44.6a.468.468,0,0,1-.467-.467v-4.675a.468.468,0,0,1,.467-.467h.467a2.8,2.8,0,1,1,0,5.609Zm0-.935h0Zm0-3.74v3.74a1.87,1.87,0,0,0,0-3.74Zm0,0" transform="translate(-44.137 -368.367)" fill="#fff"/>
    <path id="Tracé_135" data-name="Tracé 135" d="M143.579,385.2h-.935a1.4,1.4,0,0,1-1.4-1.4v-2.8a1.4,1.4,0,0,1,1.4-1.4h.935a1.4,1.4,0,0,1,1.4,1.4v2.8A1.4,1.4,0,0,1,143.579,385.2Zm-.935-4.674a.468.468,0,0,0-.467.467v2.8a.468.468,0,0,0,.467.467h.935a.468.468,0,0,0,.467-.467v-2.8a.468.468,0,0,0-.467-.467Zm0,0" transform="translate(-136.1 -368.367)" fill="#fff"/>
  </g>
</svg>
